<svg xmlns="http://www.w3.org/2000/svg" viewBox="0 0 512 512" width="512" height="512">
  <rect width="512" height="512" rx="110" fill="#1E293B"/>
  <path d="M87,146 L278,146 L278,202 L87,202 A9,9 0 0,1 78,193 L78,155 A9,9 0 0,1 87,146 Z" fill="white" opacity="0.9"/>
  <path d="M280,146 L425,146 A9,9 0 0,1 434,155 L434,193 A9,9 0 0,1 425,202 L280,202 Z" fill="white" opacity="0.48"/>
  <path d="M87,228 L210,228 L210,284 L87,284 A9,9 0 0,1 78,275 L78,237 A9,9 0 0,1 87,228 Z" fill="white" opacity="0.9"/>
  <path d="M212,228 L305,228 A9,9 0 0,1 314,237 L314,275 A9,9 0 0,1 305,284 L212,284 Z" fill="white" opacity="0.48"/>
  <path d="M87,310 L160,310 L160,366 L87,366 A9,9 0 0,1 78,357 L78,319 A9,9 0 0,1 87,310 Z" fill="white" opacity="0.9"/>
  <path d="M162,310 L215,310 A9,9 0 0,1 224,319 L224,357 A9,9 0 0,1 215,366 L162,366 Z" fill="white" opacity="0.48"/>
</svg>
